PathFileType	3	(X/Y/Z)	D:\minhoCalibration\240510\subject5_KPNP\preferred\preferred11.trc
DataRate	CameraRate	NumFrames	NumMarkers	Units	OrigDataRate	OrigDataStartFrame	OrigNumFrames
200.0	200.0	30	10	mm	200.0	210	101	
Frame#	Time	Left_Ankle_Outer1			Left_Ankle_Inner1			Left_Knee_Outer1			Left_Knee_Inner1			Left_Wrist1			Right_Wrist1			Right_Knee_Inner1			Right_Knee_Outer1			Right_Ankle_Inner1			Right_Ankle_Outer1			
		X1	Y1	Z1	X2	Y2	Z2	X3	Y3	Z3	X4	Y4	Z4	X5	Y5	Z5	X6	Y6	Z6	X7	Y7	Z7	X8	Y8	Z8	X9	Y9	Z9	X10	Y10	Z10	
210	1.04	-495.91086	77.343689	-601.46362	-529.94489	94.378906	-562.43054	-320.78384	524.19623	-563.22223	-369.46774	514.30298	-482.32581	-425.48904	956.40808	-761.32422	-498.44165	1187.4835	-528.98663	-381.30539	1009.6538	-80.754288	-380.57947	1094.4854	-109.41464	-511.87933	1041.6045	360.02853	-548.60559	1128.3093	332.79498
211	1.045	-495.97095	77.109146	-601.60028	-529.42474	93.553047	-563.98218	-321.76309	524.56256	-563.50824	-370.21268	514.42682	-482.4682	-426.05017	956.60266	-759.96185	-499.9155	1188.244	-527.65601	-388.99353	1014.1275	-79.066093	-389.78033	1098.8352	-109.32449	-465.65942	1044.0338	372.41254	-507.94012	1129.1906	347.17944
212	1.05	-496.14481	77.032829	-601.6687	-529.93506	93.176033	-563.75909	-322.70367	524.89575	-563.58582	-371.14154	514.54865	-482.31921	-426.36475	957.12048	-757.36536	-502.22415	1188.8394	-525.92053	-395.54092	1019.2426	-77.635918	-397.97528	1104.699	-108.83194	-429.85944	1046.1139	374.90836	-474.33594	1128.2175	352.20316
213	1.055	-496.43213	76.873589	-601.60571	-530.49164	93.273109	-562.84912	-323.81549	525.2381	-563.45239	-371.81912	514.60901	-481.95319	-426.72269	957.47119	-753.68945	-503.97623	1189.4493	-524.73676	-397.62561	1024.8541	-76.513123	-403.17688	1111.129	-107.40662	-410.52969	1045.978	371.57581	-460.06314	1128.5079	351.173
214	1.06	-496.659	76.881241	-601.43066	-530.30182	92.892342	-563.30292	-325.3136	525.48828	-562.88794	-372.22937	514.56787	-481.18512	-425.95154	958.07178	-749.90466	-506.33234	1189.9603	-522.59241	-395.09546	1031.4102	-76.250458	-403.92767	1117.6132	-105.96991	-404.98349	1043.7281	369.44797	-454.17105	1126.9843	352.10025
215	1.065	-496.78613	76.932945	-601.37549	-530.76794	92.870514	-562.32611	-326.87836	525.76849	-561.8183	-373.1669	514.58746	-479.63602	-423.61569	958.87323	-747.08905	-508.62317	1190.3827	-520.69366	-390.52383	1037.2188	-76.790321	-402.25812	1122.4645	-104.90248	-407.09906	1041.2562	370.57675	-456.07324	1125.2152	352.56421
216	1.07	-496.94992	77.047974	-601.23126	-530.63354	92.748146	-562.98248	-328.40442	526.08948	-560.1972	-374.15845	514.61304	-478.00424	-422.89462	959.2865	-742.49994	-511.25931	1190.8513	-518.83667	-387.1019	1040.9592	-78.068794	-401.75085	1125.7039	-104.14508	-409.62949	1038.4309	370.66336	-461.23395	1121.3821	354.14163
217	1.075	-496.92612	77.170929	-601.04816	-531.24939	92.721458	-562.13745	-329.79349	526.64557	-558.02435	-375.76471	514.76086	-475.73471	-421.96844	959.83405	-738.50787	-514.33429	1190.9911	-517.04126	-384.69702	1043.5813	-78.708885	-401.12399	1127.7704	-103.52522	-410.01596	1036.9158	371.87064	-467.7934	1116.3008	355.70877
218	1.08	-496.88708	77.307877	-600.84515	-531.15479	92.674332	-561.90863	-331.29898	527.08411	-555.22314	-377.7532	515.03308	-473.2037	-420.37491	960.60474	-735.49469	-517.48438	1190.9631	-515.47443	-383.94864	1046.4678	-78.990547	-400.53854	1129.3303	-102.64618	-411.76337	1033.8596	372.63391	-472.36823	1111.2252	356.53204
219	1.085	-496.74356	77.629608	-600.56512	-531.39679	92.667015	-561.90674	-333.23938	527.5484	-551.83838	-380.03586	515.17731	-470.35559	-418.85657	961.40747	-732.64807	-520.84045	1191.2482	-513.75659	-385.05756	1049.4235	-78.62294	-400.80713	1130.4661	-102.19175	-415.89224	1027.7024	370.37	-475.0563	1106.6086	357.37863
220	1.09	-496.50455	78.079964	-600.31421	-531.50287	92.67775	-561.93225	-335.28806	528.09204	-548.06842	-382.85364	515.44153	-467.40707	-417.21439	962.27441	-730.07574	-523.95453	1191.1182	-513.38086	-387.97992	1051.2938	-77.442017	-402.27377	1131.3035	-101.87391	-418.22729	1021.6309	368.65778	-477.96207	1100.5415	358.11169
221	1.095	-496.31516	78.444824	-600.02539	-531.54449	92.450912	-562.59363	-336.76755	529.19269	-544.74091	-385.95175	515.68445	-464.58301	-416.10114	962.52393	-727.29651	-526.97528	1191.5054	-512.52069	-392.0434	1051.8624	-76.051926	-406.42615	1131.8782	-100.71079	-418.26862	1017.4406	368.35477	-480.92813	1094.2256	359.1062
222	1.1	-496.15814	78.746109	-599.69794	-532.05865	92.61496	-561.73566	-338.9631	530.04083	-540.87506	-389.54581	516.14764	-461.76187	-414.80011	962.81049	-724.86035	-529.51276	1191.7542	-512.56665	-396.98737	1051.3622	-74.922127	-411.95911	1132.2339	-99.458481	-418.07465	1013.1273	369.22263	-482.91092	1087.8639	360.45865
223	1.105	-496.28748	78.934128	-599.41956	-532.26575	92.621437	-561.35059	-341.32669	530.80035	-537.14069	-393.49295	516.65558	-459.10117	-413.44586	962.89136	-722.59729	-531.75763	1192.1533	-512.78137	-401.80139	1050.4216	-74.048561	-419.58459	1132.0614	-97.751366	-418.00131	1009.6128	371.33218	-484.81961	1082.563	362.37381
224	1.11	-496.40585	79.103371	-599.13721	-532.51135	92.329193	-561.38867	-343.70914	531.66345	-533.65051	-397.55121	517.08252	-456.76917	-412.17535	962.7915	-720.32141	-533.58008	1192.5773	-513.63776	-405.90485	1049.1415	-73.126587	-428.44876	1131.2383	-95.806183	-418.39563	1005.5291	371.28268	-486.39078	1077.5331	363.84708
225	1.115	-496.79425	79.097542	-598.74438	-532.83417	92.953232	-559.8432	-346.19003	532.29816	-530.39899	-401.62384	516.7345	-455.94263	-410.94717	962.42578	-717.81616	-535.02942	1192.9957	-514.53076	-409.21442	1047.6018	-72.166985	-438.09213	1129.2305	-93.837921	-418.86484	1001.4153	371.41953	-488.13147	1072.0873	364.8967
226	1.12	-497.259	78.99633	-598.30103	-534.11401	91.134506	-560.96887	-349.31708	532.44891	-527.25537	-406.06226	517.35339	-453.7435	-409.32501	962.34009	-715.44354	-536.29504	1194.0521	-514.44373	-411.76901	1046.0984	-71.450676	-447.49857	1125.6998	-91.824501	-419.24802	997.07031	371.87616	-489.88116	1066.1077	365.81964
227	1.125	-498.06201	78.70192	-597.70923	-534.69562	90.211174	-561.26984	-351.91428	532.67926	-524.74756	-410.63004	517.20807	-453.10904	-407.80011	961.95105	-712.98004	-537.33368	1195.0118	-515.10455	-413.91873	1044.9862	-70.970131	-455.43951	1121.7162	-90.073372	-419.15625	992.35669	372.36838	-491.52277	1059.3141	366.71835
228	1.13	-498.99728	78.345139	-597.1897	-536.10706	89.583473	-560.11426	-354.858	532.36719	-522.47113	-415.29425	517.80273	-451.18591	-406.03064	961.80078	-710.46423	-538.17798	1195.8209	-515.89728	-415.50223	1043.8317	-70.967422	-461.67401	1118.0342	-88.845749	-418.53247	986.96259	372.91238	-493.2749	1051.308	367.6384
229	1.135	-500.06921	77.865471	-596.62927	-537.40948	88.726105	-559.45947	-357.36264	532.14954	-520.8847	-419.33383	517.71869	-450.64014	-404.21362	961.66199	-708.00922	-539.00903	1196.3405	-516.58807	-419.0369	1041.2292	-70.441628	-466.83374	1114.5038	-87.846321	-417.55121	980.85443	372.94141	-495.11356	1042.306	368.36813
230	1.14	-501.03815	77.385071	-596.25897	-538.24915	87.961143	-559.37531	-359.68262	531.74829	-519.57861	-422.9827	517.48883	-450.39771	-402.41528	961.62317	-705.66919	-540.02142	1196.5001	-516.88153	-423.14429	1037.884	-69.843437	-470.94321	1111.2483	-86.901505	-416.68259	973.94843	372.41858	-496.55948	1032.2925	368.58731
231	1.145	-501.89703	76.783058	-595.9425	-538.36438	87.020172	-559.55328	-361.85715	531.33826	-518.63708	-426.19751	517.073	-450.38416	-400.45419	961.86127	-703.4978	-541.2334	1196.3344	-516.9472	-427.13721	1034.2092	-69.432106	-475.10938	1107.7244	-85.453865	-416.28964	966.57104	371.45084	-498.62772	1021.6893	368.91318
232	1.15	-502.31616	76.362465	-595.80359	-538.86462	86.120987	-560.25244	-363.51721	530.87195	-518.23199	-428.3782	515.94122	-452.05136	-398.46378	962.26007	-701.39911	-543.18579	1195.6923	-516.41864	-430.55197	1030.4414	-69.584007	-478.93909	1103.7445	-84.277245	-416.55136	958.16876	369.85547	-500.90402	1010.7966	369.14026
233	1.155	-502.54065	76.106903	-595.78271	-539.15625	85.752731	-560.26685	-364.72885	530.53455	-518.26886	-430.69669	516.03973	-451.1918	-396.48273	963.00977	-699.32617	-545.47626	1194.745	-515.76691	-435.80261	1025.7343	-67.833168	-483.80927	1099.1393	-82.503799	-417.48492	949.1615	367.96667	-502.44684	999.13519	368.43491
234	1.16	-502.56555	75.985786	-595.88452	-539.45044	85.659195	-560.09735	-365.66766	530.24469	-518.6037	-431.58676	515.0072	-453.32224	-394.77673	963.74902	-697.33179	-548.34943	1193.2964	-514.4845	-439.79578	1021.246	-67.177963	-488.8219	1094.0758	-80.708862	-420.57373	939.69135	364.78271	-505.52219	987.71417	368.30035
235	1.165	-502.22403	76.077843	-596.01923	-539.16882	85.695145	-560.34735	-365.75299	530.23419	-519.61371	-432.36896	515.16522	-453.14703	-392.93094	964.97174	-695.45044	-550.95654	1192.1768	-513.53046	-443.53784	1016.5779	-66.70079	-493.81982	1088.5385	-79.104034	-422.78064	929.78955	363.63406	-508.98306	976.06091	367.99387
236	1.17	-502.32785	75.731361	-595.88068	-538.05487	86.120384	-561.13123	-365.75482	530.39221	-520.80389	-431.95453	514.69537	-455.46725	-391.02405	966.5379	-693.7312	-554.35425	1190.4949	-511.77615	-447.14493	1011.6907	-66.376877	-499.0816	1082.6804	-77.441406	-425.87521	919.27942	362.35144	-512.4502	963.97314	367.07486
237	1.175	-501.35928	76.294533	-596.4903	-538.65051	86.676781	-560.26813	-365.33078	530.61371	-522.38495	-431.61481	515.42645	-455.75806	-389.36578	968.02246	-692.04309	-556.80206	1189.4039	-511.16754	-450.98346	1006.1198	-66.003296	-503.66174	1076.6295	-76.262909	-429.56924	908.20416	361.07498	-516.73804	951.79456	366.24261
238	1.18	-500.87939	76.365921	-596.7204	-538.25769	87.019211	-560.62927	-364.60321	531.07581	-524.27002	-430.56348	515.85266	-457.61493	-387.49362	969.87286	-690.58594	-560.2309	1187.713	-509.74976	-454.53513	1000.4456	-66.152359	-508.02606	1070.332	-75.366684	-433.83798	896.41241	359.52734	-521.61511	939.16248	365.19437
239	1.185	-500.41629	76.318649	-596.98206	-537.92816	87.317017	-561.07166	-363.88818	531.42407	-526.23505	-429.33615	516.57172	-459.3114	-385.44986	971.95673	-689.29895	-563.13696	1186.2694	-508.62741	-457.7359	994.41125	-66.767532	-512.21869	1063.9677	-74.845932	-438.74396	884.26935	357.91681	-527.10754	926.0462	363.82944
